<mxfile host="65bd71144e">
    <diagram id="Xf5GsuMawc0rOy-uEA9q" name="Page-1">
        <mxGraphModel dx="339" dy="480" grid="1" gridSize="10" guides="1" tooltips="1" connect="1" arrows="1" fold="1" page="1" pageScale="1" pageWidth="850" pageHeight="1100" background="#ffffff" math="0" shadow="0">
            <root>
                <mxCell id="0"/>
                <mxCell id="1" parent="0"/>
                <mxCell id="11" value="&lt;b&gt;&lt;u&gt;&lt;font color=&quot;#000000&quot;&gt;START&lt;/font&gt;&lt;/u&gt;&lt;/b&gt;" style="ellipse;whiteSpace=wrap;html=1;fillColor=#ffcccc;strokeColor=#36393d;shadow=0;sketch=0;" vertex="1" parent="1">
                    <mxGeometry x="40" y="90" width="100" height="60" as="geometry"/>
                </mxCell>
                <mxCell id="14" value="" style="endArrow=classic;html=1;labelBackgroundColor=default;fontFamily=Times New Roman;fontSize=18;fontColor=#FDFCFF;strokeColor=#000000;" edge="1" parent="1">
                    <mxGeometry width="50" height="50" relative="1" as="geometry">
                        <mxPoint x="89.5" y="150" as="sourcePoint"/>
                        <mxPoint x="89.5" y="200" as="targetPoint"/>
                    </mxGeometry>
                </mxCell>
                <mxCell id="32" value="" style="edgeStyle=none;html=1;labelBackgroundColor=default;fontFamily=Times New Roman;fontSize=10;fontColor=#0A0300;strokeColor=#000000;" edge="1" parent="1" source="15" target="26">
                    <mxGeometry relative="1" as="geometry"/>
                </mxCell>
                <mxCell id="15" value="&lt;font style=&quot;font-size: 10px&quot;&gt;&lt;font color=&quot;#000000&quot;&gt;&lt;b&gt;NAMA&lt;/b&gt;&lt;/font&gt;&lt;br&gt;&lt;/font&gt;" style="shape=parallelogram;perimeter=parallelogramPerimeter;whiteSpace=wrap;html=1;fixedSize=1;shadow=0;sketch=0;fontFamily=Times New Roman;fontSize=18;strokeColor=#36393d;fillColor=#cce5ff;" vertex="1" parent="1">
                    <mxGeometry x="30" y="200" width="120" height="60" as="geometry"/>
                </mxCell>
                <mxCell id="17" value="" style="endArrow=classic;html=1;labelBackgroundColor=default;fontFamily=Times New Roman;fontSize=18;fontColor=#FDFCFF;strokeColor=#000000;" edge="1" parent="1">
                    <mxGeometry width="50" height="50" relative="1" as="geometry">
                        <mxPoint x="89.5" y="260" as="sourcePoint"/>
                        <mxPoint x="89.5" y="310" as="targetPoint"/>
                    </mxGeometry>
                </mxCell>
                <mxCell id="18" value="&lt;font style=&quot;font-size: 10px&quot;&gt;&lt;font color=&quot;#000000&quot;&gt;&lt;b&gt;NIK&lt;/b&gt;&lt;/font&gt;&lt;br&gt;&lt;/font&gt;" style="shape=parallelogram;perimeter=parallelogramPerimeter;whiteSpace=wrap;html=1;fixedSize=1;shadow=0;sketch=0;fontFamily=Times New Roman;fontSize=18;strokeColor=#36393d;fillColor=#cce5ff;" vertex="1" parent="1">
                    <mxGeometry x="30" y="310" width="120" height="60" as="geometry"/>
                </mxCell>
                <mxCell id="19" value="&lt;font style=&quot;font-size: 10px&quot;&gt;&lt;font color=&quot;#000000&quot;&gt;&lt;b&gt;TEMPAT LAHIR&lt;/b&gt;&lt;/font&gt;&lt;br&gt;&lt;/font&gt;" style="shape=parallelogram;perimeter=parallelogramPerimeter;whiteSpace=wrap;html=1;fixedSize=1;shadow=0;sketch=0;fontFamily=Times New Roman;fontSize=18;strokeColor=#36393d;fillColor=#cce5ff;" vertex="1" parent="1">
                    <mxGeometry x="30" y="420" width="120" height="60" as="geometry"/>
                </mxCell>
                <mxCell id="20" value="&lt;font style=&quot;font-size: 10px&quot;&gt;&lt;font color=&quot;#000000&quot;&gt;&lt;b&gt;TANGGAL LAHIR&lt;/b&gt;&lt;/font&gt;&lt;br&gt;&lt;/font&gt;" style="shape=parallelogram;perimeter=parallelogramPerimeter;whiteSpace=wrap;html=1;fixedSize=1;shadow=0;sketch=0;fontFamily=Times New Roman;fontSize=18;strokeColor=#36393d;fillColor=#cce5ff;" vertex="1" parent="1">
                    <mxGeometry x="30" y="530" width="120" height="60" as="geometry"/>
                </mxCell>
                <mxCell id="21" value="&lt;font style=&quot;font-size: 10px&quot;&gt;&lt;font color=&quot;#000000&quot;&gt;&lt;b&gt;EMAIL&lt;/b&gt;&lt;/font&gt;&lt;br&gt;&lt;/font&gt;" style="shape=parallelogram;perimeter=parallelogramPerimeter;whiteSpace=wrap;html=1;fixedSize=1;shadow=0;sketch=0;fontFamily=Times New Roman;fontSize=18;strokeColor=#36393d;fillColor=#cce5ff;" vertex="1" parent="1">
                    <mxGeometry x="30" y="640" width="120" height="60" as="geometry"/>
                </mxCell>
                <mxCell id="22" value="" style="endArrow=classic;html=1;labelBackgroundColor=default;fontFamily=Times New Roman;fontSize=18;fontColor=#FDFCFF;strokeColor=#000000;" edge="1" parent="1">
                    <mxGeometry width="50" height="50" relative="1" as="geometry">
                        <mxPoint x="89.5" y="370" as="sourcePoint"/>
                        <mxPoint x="89.5" y="420" as="targetPoint"/>
                    </mxGeometry>
                </mxCell>
                <mxCell id="23" value="" style="endArrow=classic;html=1;labelBackgroundColor=default;fontFamily=Times New Roman;fontSize=18;fontColor=#FDFCFF;strokeColor=#000000;" edge="1" parent="1">
                    <mxGeometry width="50" height="50" relative="1" as="geometry">
                        <mxPoint x="89.5" y="480" as="sourcePoint"/>
                        <mxPoint x="89.5" y="530" as="targetPoint"/>
                    </mxGeometry>
                </mxCell>
                <mxCell id="24" value="" style="endArrow=classic;html=1;labelBackgroundColor=default;fontFamily=Times New Roman;fontSize=18;fontColor=#FDFCFF;strokeColor=#000000;" edge="1" parent="1">
                    <mxGeometry width="50" height="50" relative="1" as="geometry">
                        <mxPoint x="89.5" y="590" as="sourcePoint"/>
                        <mxPoint x="89.5" y="640" as="targetPoint"/>
                    </mxGeometry>
                </mxCell>
                <mxCell id="26" value="&lt;font color=&quot;#0a0300&quot;&gt;&lt;b&gt;input &quot;nama&quot;&lt;/b&gt;&lt;/font&gt;" style="rounded=0;whiteSpace=wrap;html=1;shadow=0;sketch=0;fontFamily=Times New Roman;fontSize=10;strokeColor=#36393d;fillColor=#ffcc99;" vertex="1" parent="1">
                    <mxGeometry x="200" y="200" width="120" height="60" as="geometry"/>
                </mxCell>
                <mxCell id="27" value="" style="endArrow=classic;html=1;labelBackgroundColor=default;fontFamily=Times New Roman;fontSize=18;fontColor=#FDFCFF;strokeColor=#000000;" edge="1" parent="1">
                    <mxGeometry width="50" height="50" relative="1" as="geometry">
                        <mxPoint x="140" y="229.5" as="sourcePoint"/>
                        <mxPoint x="199.5" y="229.5" as="targetPoint"/>
                    </mxGeometry>
                </mxCell>
                <mxCell id="28" value="&lt;font color=&quot;#0a0300&quot;&gt;&lt;b&gt;input &quot;nik&quot;&lt;/b&gt;&lt;/font&gt;" style="rounded=0;whiteSpace=wrap;html=1;shadow=0;sketch=0;fontFamily=Times New Roman;fontSize=10;strokeColor=#36393d;fillColor=#ffcc99;" vertex="1" parent="1">
                    <mxGeometry x="200" y="310" width="120" height="60" as="geometry"/>
                </mxCell>
                <mxCell id="29" value="&lt;font color=&quot;#0a0300&quot;&gt;&lt;b&gt;input &quot;tempat_lahir&quot;&lt;/b&gt;&lt;/font&gt;" style="rounded=0;whiteSpace=wrap;html=1;shadow=0;sketch=0;fontFamily=Times New Roman;fontSize=10;strokeColor=#36393d;fillColor=#ffcc99;" vertex="1" parent="1">
                    <mxGeometry x="200" y="420" width="120" height="60" as="geometry"/>
                </mxCell>
                <mxCell id="30" value="&lt;font color=&quot;#0a0300&quot;&gt;&lt;b&gt;input &quot;tanggal_lahir&quot;&lt;/b&gt;&lt;/font&gt;" style="rounded=0;whiteSpace=wrap;html=1;shadow=0;sketch=0;fontFamily=Times New Roman;fontSize=10;strokeColor=#36393d;fillColor=#ffcc99;" vertex="1" parent="1">
                    <mxGeometry x="200" y="530" width="120" height="60" as="geometry"/>
                </mxCell>
                <mxCell id="31" value="&lt;font color=&quot;#0a0300&quot;&gt;&lt;b&gt;input &quot;email&quot;&lt;/b&gt;&lt;/font&gt;" style="rounded=0;whiteSpace=wrap;html=1;shadow=0;sketch=0;fontFamily=Times New Roman;fontSize=10;strokeColor=#36393d;fillColor=#ffcc99;" vertex="1" parent="1">
                    <mxGeometry x="200" y="640" width="120" height="60" as="geometry"/>
                </mxCell>
                <mxCell id="33" value="" style="endArrow=classic;html=1;labelBackgroundColor=default;fontFamily=Times New Roman;fontSize=18;fontColor=#FDFCFF;strokeColor=#000000;" edge="1" parent="1">
                    <mxGeometry width="50" height="50" relative="1" as="geometry">
                        <mxPoint x="140.5" y="339.5" as="sourcePoint"/>
                        <mxPoint x="200" y="339.5" as="targetPoint"/>
                    </mxGeometry>
                </mxCell>
                <mxCell id="34" value="" style="endArrow=classic;html=1;labelBackgroundColor=default;fontFamily=Times New Roman;fontSize=18;fontColor=#FDFCFF;strokeColor=#000000;" edge="1" parent="1">
                    <mxGeometry width="50" height="50" relative="1" as="geometry">
                        <mxPoint x="140.5" y="449.5" as="sourcePoint"/>
                        <mxPoint x="200" y="449.5" as="targetPoint"/>
                    </mxGeometry>
                </mxCell>
                <mxCell id="35" value="" style="endArrow=classic;html=1;labelBackgroundColor=default;fontFamily=Times New Roman;fontSize=18;fontColor=#FDFCFF;strokeColor=#000000;" edge="1" parent="1">
                    <mxGeometry width="50" height="50" relative="1" as="geometry">
                        <mxPoint x="140" y="559.5" as="sourcePoint"/>
                        <mxPoint x="199.5" y="559.5" as="targetPoint"/>
                    </mxGeometry>
                </mxCell>
                <mxCell id="36" value="" style="endArrow=classic;html=1;labelBackgroundColor=default;fontFamily=Times New Roman;fontSize=18;fontColor=#FDFCFF;strokeColor=#000000;" edge="1" parent="1">
                    <mxGeometry width="50" height="50" relative="1" as="geometry">
                        <mxPoint x="140.5" y="669.5" as="sourcePoint"/>
                        <mxPoint x="200" y="669.5" as="targetPoint"/>
                    </mxGeometry>
                </mxCell>
            </root>
        </mxGraphModel>
    </diagram>
</mxfile>